<svg width="172" height="172" xmlns="http://www.w3.org/2000/svg" preserveAspectRatio="xMidYMid meet">
 <metadata>Created by Docfx</metadata>

 <g>
  <title>background</title>
  <rect fill="none" id="canvas_background" height="174" width="174" y="-1" x="-1"/>
 </g>
 <g>
  <title>Layer 1</title>
  <text stroke="#000" transform="matrix(0.6255319118499756,0,0,0.6255319118499756,23.217021465301514,1.872340440750122) " xml:space="preserve" text-anchor="start" font-family="'Trebuchet MS', Gadget, sans-serif" font-size="39" id="svg_5" y="53.19642" x="60.412096" stroke-width="0" fill="#b2b2b2">Vsts.Net</text>
  <metadata transform="matrix(0.11111111773384952,0,0,0.11111111773384952,0,0) ">Created by Docfx</metadata>
  <g transform="matrix(0.6255319118499756,0,0,0.6255319118499756,23.217021465301514,1.872340440750122) " stroke="null" id="svg_24">
   <path stroke="null" fill="#cccccc" id="svg_22" d="m39.957918,17.993197l-16.715447,16.628149l-11.085433,-8.314075l-4.157037,1.385679l0,20.785187l4.157037,2.771358l11.085433,-8.314075l16.454939,16.628149l9.872964,-4.157037l0,-33.342211l-9.612456,-4.071125zm-27.80088,26.327903l0,-11.085433l6.928396,5.542716l-6.928396,5.542716zm27.713582,2.771358l-11.085433,-8.314075l11.085433,-8.314075l0,16.628149z"/>
  </g>
 </g>
</svg>